<svg width="806" height="194" viewBox="0 0 806 194" fill="none" xmlns="http://www.w3.org/2000/svg">
<g filter="url(#filter0_d_205_959)">
<path d="M33.2969 9.67432C41.1094 9.67432 45.0156 13.5806 45.0156 21.3931V22.8579C45.0156 30.6704 41.1094 34.5767 33.2969 34.5767H12.7891V50.6899H4V9.67432H33.2969ZM36.2266 21.3931C36.2266 19.4399 35.25 18.4634 33.2969 18.4634H12.7891V25.7876H33.2969C35.25 25.7876 36.2266 24.811 36.2266 22.8579V21.3931ZM80.1719 9.67432C87.9844 9.67432 91.8906 13.5806 91.8906 21.3931V22.8579C91.8906 30.6704 87.9844 34.5767 80.1719 34.5767H78.707L94.8203 50.6899H82.3984L66.2852 34.5767H59.6641V50.6899H50.875V9.67432H80.1719ZM83.1016 21.3931C83.1016 19.4399 82.125 18.4634 80.1719 18.4634H59.6641V25.7876H80.1719C82.125 25.7876 83.1016 24.811 83.1016 22.8579V21.3931ZM138.766 9.67432V18.4634H106.539V25.7876H135.836V34.5767H106.539V41.9009H138.766V50.6899H97.75V9.67432H138.766ZM153.414 24.6743V50.6899H144.625V9.67432H150.836L165.133 23.9712L179.43 9.67432H185.641V50.6899H176.852V24.6743L165.133 36.3931L153.414 24.6743ZM200.289 50.6899H191.5V9.67432H200.289V50.6899ZM206.148 36.0415V9.67432H214.938V36.0415C214.938 39.9478 216.891 41.9009 220.797 41.9009H232.516C236.422 41.9009 238.375 39.9478 238.375 36.0415V9.67432H247.164V36.0415C247.164 45.8071 242.281 50.6899 232.516 50.6899H220.797C211.031 50.6899 206.148 45.8071 206.148 36.0415ZM261.812 24.6743V50.6899H253.023V9.67432H259.234L273.531 23.9712L287.828 9.67432H294.039V50.6899H285.25V24.6743L273.531 36.3931L261.812 24.6743Z" fill="#E7C13C"/>
<path d="M18.0332 113.88V78.1964H5.28906V70.9308H39.4199V78.1964H26.7051V113.88H18.0332ZM45.0742 113.88V70.9308H63.3262C67.916 70.9308 71.2461 71.3214 73.3164 72.1027C75.4062 72.8644 77.0762 74.2316 78.3262 76.2042C79.5762 78.1769 80.2012 80.4327 80.2012 82.9718C80.2012 86.1945 79.2539 88.8605 77.3594 90.9698C75.4648 93.0597 72.6328 94.3781 68.8633 94.9249C70.7383 96.0187 72.2812 97.2198 73.4922 98.5284C74.7227 99.837 76.373 102.161 78.4434 105.501L83.6875 113.88H73.3164L67.0469 104.534C64.8203 101.194 63.2969 99.0948 62.4766 98.2355C61.6562 97.3566 60.7871 96.7609 59.8691 96.4484C58.9512 96.1163 57.4961 95.9503 55.5039 95.9503H53.7461V113.88H45.0742ZM53.7461 89.0948H60.1621C64.3223 89.0948 66.9199 88.9191 67.9551 88.5675C68.9902 88.2159 69.8008 87.6105 70.3867 86.7511C70.9727 85.8917 71.2656 84.8175 71.2656 83.5284C71.2656 82.0831 70.875 80.921 70.0938 80.0421C69.332 79.1437 68.248 78.5773 66.8418 78.3429C66.1387 78.2452 64.0293 78.1964 60.5137 78.1964H53.7461V89.0948ZM127.135 113.88H117.701L113.951 104.124H96.7832L93.2383 113.88H84.0391L100.768 70.9308H109.938L127.135 113.88ZM111.168 96.8878L105.25 80.9503L99.4492 96.8878H111.168ZM131.852 113.88V70.9308H140.289L157.867 99.6124V70.9308H165.924V113.88H157.223L139.908 85.8722V113.88H131.852ZM172.926 99.9054L181.363 99.0851C181.871 101.917 182.896 103.997 184.439 105.325C186.002 106.653 188.102 107.318 190.738 107.318C193.531 107.318 195.631 106.732 197.037 105.56C198.463 104.368 199.176 102.982 199.176 101.4C199.176 100.384 198.873 99.5245 198.268 98.8214C197.682 98.0988 196.646 97.4738 195.162 96.9464C194.146 96.5948 191.832 95.9698 188.219 95.0714C183.57 93.9191 180.309 92.5031 178.434 90.8234C175.797 88.4601 174.479 85.5792 174.479 82.1808C174.479 79.9933 175.094 77.9523 176.324 76.0577C177.574 74.1437 179.361 72.6886 181.686 71.6925C184.029 70.6964 186.852 70.1984 190.152 70.1984C195.543 70.1984 199.596 71.38 202.311 73.7433C205.045 76.1066 206.48 79.2609 206.617 83.2062L197.945 83.587C197.574 81.38 196.773 79.798 195.543 78.8409C194.332 77.8644 192.506 77.3761 190.064 77.3761C187.545 77.3761 185.572 77.8937 184.146 78.9288C183.229 79.5929 182.77 80.4816 182.77 81.5948C182.77 82.6105 183.199 83.4796 184.059 84.2023C185.152 85.1202 187.809 86.0773 192.027 87.0734C196.246 88.0695 199.361 89.1046 201.373 90.1788C203.404 91.2335 204.986 92.6886 206.119 94.5441C207.271 96.38 207.848 98.6554 207.848 101.37C207.848 103.831 207.164 106.136 205.797 108.284C204.43 110.433 202.496 112.034 199.996 113.089C197.496 114.124 194.381 114.642 190.65 114.642C185.221 114.642 181.051 113.392 178.141 110.892C175.23 108.372 173.492 104.71 172.926 99.9054ZM215.143 113.88V70.9308H229.059C234.332 70.9308 237.77 71.1456 239.371 71.5753C241.832 72.2198 243.893 73.6261 245.553 75.7941C247.213 77.9425 248.043 80.7257 248.043 84.1437C248.043 86.7804 247.564 88.9972 246.607 90.7941C245.65 92.5909 244.43 94.007 242.945 95.0421C241.48 96.0577 239.986 96.7316 238.463 97.0636C236.393 97.4738 233.395 97.6788 229.469 97.6788H223.814V113.88H215.143ZM223.814 78.1964V90.3839H228.561C231.979 90.3839 234.264 90.1593 235.416 89.7101C236.568 89.2609 237.467 88.5577 238.111 87.6007C238.775 86.6437 239.107 85.5304 239.107 84.2609C239.107 82.6984 238.648 81.4093 237.73 80.3937C236.812 79.3781 235.65 78.7433 234.244 78.4894C233.209 78.2941 231.129 78.1964 228.004 78.1964H223.814ZM253.404 92.6691C253.404 88.2941 254.059 84.6222 255.367 81.6534C256.344 79.4659 257.672 77.5031 259.352 75.7648C261.051 74.0265 262.906 72.7374 264.918 71.8976C267.594 70.7648 270.68 70.1984 274.176 70.1984C280.504 70.1984 285.562 72.1613 289.352 76.087C293.16 80.0128 295.064 85.4718 295.064 92.464C295.064 99.3976 293.18 104.827 289.41 108.753C285.641 112.659 280.602 114.612 274.293 114.612C267.906 114.612 262.828 112.669 259.059 108.782C255.289 104.876 253.404 99.505 253.404 92.6691ZM262.34 92.3761C262.34 97.2394 263.463 100.931 265.709 103.45C267.955 105.95 270.807 107.2 274.264 107.2C277.721 107.2 280.553 105.96 282.76 103.48C284.986 100.98 286.1 97.2394 286.1 92.2589C286.1 87.337 285.016 83.6652 282.848 81.2433C280.699 78.8214 277.838 77.6105 274.264 77.6105C270.689 77.6105 267.809 78.8409 265.621 81.3019C263.434 83.7433 262.34 87.4347 262.34 92.3761ZM301.891 113.88V70.9308H320.143C324.732 70.9308 328.062 71.3214 330.133 72.1027C332.223 72.8644 333.893 74.2316 335.143 76.2042C336.393 78.1769 337.018 80.4327 337.018 82.9718C337.018 86.1945 336.07 88.8605 334.176 90.9698C332.281 93.0597 329.449 94.3781 325.68 94.9249C327.555 96.0187 329.098 97.2198 330.309 98.5284C331.539 99.837 333.189 102.161 335.26 105.501L340.504 113.88H330.133L323.863 104.534C321.637 101.194 320.113 99.0948 319.293 98.2355C318.473 97.3566 317.604 96.7609 316.686 96.4484C315.768 96.1163 314.312 95.9503 312.32 95.9503H310.562V113.88H301.891ZM310.562 89.0948H316.979C321.139 89.0948 323.736 88.9191 324.771 88.5675C325.807 88.2159 326.617 87.6105 327.203 86.7511C327.789 85.8917 328.082 84.8175 328.082 83.5284C328.082 82.0831 327.691 80.921 326.91 80.0421C326.148 79.1437 325.064 78.5773 323.658 78.3429C322.955 78.2452 320.846 78.1964 317.33 78.1964H310.562V89.0948ZM354.889 113.88V78.1964H342.145V70.9308H376.275V78.1964H363.561V113.88H354.889ZM416.178 113.88H406.744L402.994 104.124H385.826L382.281 113.88H373.082L389.811 70.9308H398.98L416.178 113.88ZM400.211 96.8878L394.293 80.9503L388.492 96.8878H400.211ZM426.021 113.88V78.1964H413.277V70.9308H447.408V78.1964H434.693V113.88H426.021ZM452.77 113.88V70.9308H461.441V113.88H452.77ZM467.975 92.6691C467.975 88.2941 468.629 84.6222 469.938 81.6534C470.914 79.4659 472.242 77.5031 473.922 75.7648C475.621 74.0265 477.477 72.7374 479.488 71.8976C482.164 70.7648 485.25 70.1984 488.746 70.1984C495.074 70.1984 500.133 72.1613 503.922 76.087C507.73 80.0128 509.635 85.4718 509.635 92.464C509.635 99.3976 507.75 104.827 503.98 108.753C500.211 112.659 495.172 114.612 488.863 114.612C482.477 114.612 477.398 112.669 473.629 108.782C469.859 104.876 467.975 99.505 467.975 92.6691ZM476.91 92.3761C476.91 97.2394 478.033 100.931 480.279 103.45C482.525 105.95 485.377 107.2 488.834 107.2C492.291 107.2 495.123 105.96 497.33 103.48C499.557 100.98 500.67 97.2394 500.67 92.2589C500.67 87.337 499.586 83.6652 497.418 81.2433C495.27 78.8214 492.408 77.6105 488.834 77.6105C485.26 77.6105 482.379 78.8409 480.191 81.3019C478.004 83.7433 476.91 87.4347 476.91 92.3761ZM516.52 113.88V70.9308H524.957L542.535 99.6124V70.9308H550.592V113.88H541.891L524.576 85.8722V113.88H516.52ZM6.16797 160.905L14.6055 160.085C15.1133 162.917 16.1387 164.997 17.6816 166.325C19.2441 167.653 21.3438 168.318 23.9805 168.318C26.7734 168.318 28.873 167.732 30.2793 166.56C31.7051 165.368 32.418 163.982 32.418 162.4C32.418 161.384 32.1152 160.525 31.5098 159.821C30.9238 159.099 29.8887 158.474 28.4043 157.946C27.3887 157.595 25.0742 156.97 21.4609 156.071C16.8125 154.919 13.5508 153.503 11.6758 151.823C9.03906 149.46 7.7207 146.579 7.7207 143.181C7.7207 140.993 8.33594 138.952 9.56641 137.058C10.8164 135.144 12.6035 133.689 14.9277 132.693C17.2715 131.696 20.0938 131.198 23.3945 131.198C28.7852 131.198 32.8379 132.38 35.5527 134.743C38.2871 137.107 39.7227 140.261 39.8594 144.206L31.1875 144.587C30.8164 142.38 30.0156 140.798 28.7852 139.841C27.5742 138.864 25.748 138.376 23.3066 138.376C20.7871 138.376 18.8145 138.894 17.3887 139.929C16.4707 140.593 16.0117 141.482 16.0117 142.595C16.0117 143.61 16.4414 144.48 17.3008 145.202C18.3945 146.12 21.0508 147.077 25.2695 148.073C29.4883 149.069 32.6035 150.105 34.6152 151.179C36.6465 152.234 38.2285 153.689 39.3613 155.544C40.5137 157.38 41.0898 159.655 41.0898 162.37C41.0898 164.831 40.4062 167.136 39.0391 169.284C37.6719 171.433 35.7383 173.034 33.2383 174.089C30.7383 175.124 27.623 175.642 23.8926 175.642C18.4629 175.642 14.293 174.392 11.3828 171.892C8.47266 169.372 6.73438 165.71 6.16797 160.905ZM48.3848 174.88V131.931H80.2305V139.196H57.0566V148.718H78.6191V155.954H57.0566V167.644H81.0508V174.88H48.3848ZM88.4336 174.88V131.931H106.686C111.275 131.931 114.605 132.321 116.676 133.103C118.766 133.864 120.436 135.232 121.686 137.204C122.936 139.177 123.561 141.433 123.561 143.972C123.561 147.194 122.613 149.86 120.719 151.97C118.824 154.06 115.992 155.378 112.223 155.925C114.098 157.019 115.641 158.22 116.852 159.528C118.082 160.837 119.732 163.161 121.803 166.501L127.047 174.88H116.676L110.406 165.534C108.18 162.194 106.656 160.095 105.836 159.235C105.016 158.357 104.146 157.761 103.229 157.448C102.311 157.116 100.855 156.95 98.8633 156.95H97.1055V174.88H88.4336ZM97.1055 150.095H103.521C107.682 150.095 110.279 149.919 111.314 149.568C112.35 149.216 113.16 148.61 113.746 147.751C114.332 146.892 114.625 145.818 114.625 144.528C114.625 143.083 114.234 141.921 113.453 141.042C112.691 140.144 111.607 139.577 110.201 139.343C109.498 139.245 107.389 139.196 103.873 139.196H97.1055V150.095ZM141.607 174.88L126.256 131.931H135.66L146.529 163.718L157.047 131.931H166.246L150.865 174.88H141.607ZM170.406 174.88V131.931H179.078V174.88H170.406ZM214.85 159.089L223.258 161.755C221.969 166.443 219.82 169.929 216.812 172.214C213.824 174.48 210.025 175.612 205.416 175.612C199.713 175.612 195.025 173.669 191.354 169.782C187.682 165.876 185.846 160.544 185.846 153.786C185.846 146.638 187.691 141.091 191.383 137.146C195.074 133.181 199.928 131.198 205.943 131.198C211.197 131.198 215.465 132.751 218.746 135.857C220.699 137.693 222.164 140.329 223.141 143.767L214.557 145.818C214.049 143.591 212.984 141.833 211.363 140.544C209.762 139.255 207.809 138.61 205.504 138.61C202.32 138.61 199.732 139.753 197.74 142.038C195.768 144.323 194.781 148.025 194.781 153.142C194.781 158.571 195.758 162.439 197.711 164.743C199.664 167.048 202.203 168.2 205.328 168.2C207.633 168.2 209.615 167.468 211.275 166.003C212.936 164.538 214.127 162.234 214.85 159.089ZM230.729 174.88V131.931H262.574V139.196H239.4V148.718H260.963V155.954H239.4V167.644H263.395V174.88H230.729ZM268.551 160.905L276.988 160.085C277.496 162.917 278.521 164.997 280.064 166.325C281.627 167.653 283.727 168.318 286.363 168.318C289.156 168.318 291.256 167.732 292.662 166.56C294.088 165.368 294.801 163.982 294.801 162.4C294.801 161.384 294.498 160.525 293.893 159.821C293.307 159.099 292.271 158.474 290.787 157.946C289.771 157.595 287.457 156.97 283.844 156.071C279.195 154.919 275.934 153.503 274.059 151.823C271.422 149.46 270.104 146.579 270.104 143.181C270.104 140.993 270.719 138.952 271.949 137.058C273.199 135.144 274.986 133.689 277.311 132.693C279.654 131.696 282.477 131.198 285.777 131.198C291.168 131.198 295.221 132.38 297.936 134.743C300.67 137.107 302.105 140.261 302.242 144.206L293.57 144.587C293.199 142.38 292.398 140.798 291.168 139.841C289.957 138.864 288.131 138.376 285.689 138.376C283.17 138.376 281.197 138.894 279.771 139.929C278.854 140.593 278.395 141.482 278.395 142.595C278.395 143.61 278.824 144.48 279.684 145.202C280.777 146.12 283.434 147.077 287.652 148.073C291.871 149.069 294.986 150.105 296.998 151.179C299.029 152.234 300.611 153.689 301.744 155.544C302.896 157.38 303.473 159.655 303.473 162.37C303.473 164.831 302.789 167.136 301.422 169.284C300.055 171.433 298.121 173.034 295.621 174.089C293.121 175.124 290.006 175.642 286.275 175.642C280.846 175.642 276.676 174.392 273.766 171.892C270.855 169.372 269.117 165.71 268.551 160.905Z" fill="white"/>
</g>
<defs>
<filter id="filter0_d_205_959" x="0" y="9.67432" width="806" height="183.586" filterUnits="userSpaceOnUse" color-interpolation-filters="sRGB">
<feFlood flood-opacity="0" result="BackgroundImageFix"/>
<feColorMatrix in="SourceAlpha" type="matrix" values="0 0 0 0 0 0 0 0 0 0 0 0 0 0 0 0 0 0 127 0" result="hardAlpha"/>
<feOffset dy="4"/>
<feGaussianBlur stdDeviation="2"/>
<feComposite in2="hardAlpha" operator="out"/>
<feColorMatrix type="matrix" values="0 0 0 0 0 0 0 0 0 0 0 0 0 0 0 0 0 0 0.25 0"/>
<feBlend mode="normal" in2="BackgroundImageFix" result="effect1_dropShadow_205_959"/>
<feBlend mode="normal" in="SourceGraphic" in2="effect1_dropShadow_205_959" result="shape"/>
</filter>
</defs>
</svg>
